<svg width="38" height="74" viewBox="0 0 38 74" fill="none" xmlns="http://www.w3.org/2000/svg">
<path d="M1.15765e-05 11.1C1.1564e-05 10.0517 0.364811 9.1723 1.09441 8.4619C1.82401 7.7515 2.72588 7.39753 3.80001 7.4L11.4 7.4L11.4 3.17202e-07L26.6 1.35944e-07L26.6 7.4L34.2 7.4C35.2767 7.4 36.1798 7.7552 36.9094 8.4656C37.639 9.176 38.0025 10.0541 38 11.1L38 70.3C38 71.3483 37.6352 72.2277 36.9056 72.9381C36.176 73.6485 35.2741 74.0025 34.2 74L3.80001 74C2.72334 74 1.82021 73.6448 1.09061 72.9344C0.361012 72.224 -0.00252448 71.3459 1.22824e-05 70.3L1.15765e-05 11.1ZM7.6 14.8L7.6 66.6L30.4 66.6L30.4 14.8L7.6 14.8Z" fill="#111111"/>
<rect x="8" y="46" width="22" height="9.5" rx="3" fill="#111111"/>
<rect x="8" y="56" width="22" height="9.5" rx="3" fill="#111111"/>
</svg>
