<svg width="155" height="170" viewBox="0 0 155 170" fill="none" xmlns="http://www.w3.org/2000/svg">
<rect x="0.5" y="0.5" width="154" height="169" fill="#6F8E74"/>
<path d="M32.4286 125.111C32.4286 129.06 33.9939 132.847 36.7801 135.639C39.5664 138.431 43.3454 140 47.2857 140H106.714C110.655 140 114.434 138.431 117.22 135.639C120.006 132.847 121.571 129.06 121.571 125.111V35.7778H32.4286V125.111ZM47.2857 50.6667H106.714V125.111H47.2857V50.6667ZM103 13.4444L95.5714 6H58.4286L51 13.4444H25V28.3333H129V13.4444H103Z" fill="#111111"/>
<rect x="47" y="50" width="60" height="75" fill="#162607"/>
<path d="M49.32 163V146.2H61.272V149.752H53.4V153.928H60.24V157.36H53.424V163H49.32ZM62.8395 157.552V146.2H66.8475V157.6C66.8475 157.952 66.8955 158.264 66.9915 158.536C67.0875 158.808 67.2315 159.032 67.4235 159.208C67.6155 159.384 67.8395 159.528 68.0955 159.64C68.3515 159.752 68.6315 159.84 68.9355 159.904C69.2555 159.952 69.5835 159.976 69.9195 159.976C70.2875 159.976 70.6235 159.952 70.9275 159.904C71.2475 159.84 71.5275 159.752 71.7675 159.64C72.0235 159.528 72.2395 159.384 72.4155 159.208C72.6075 159.016 72.7515 158.784 72.8475 158.512C72.9435 158.24 72.9915 157.936 72.9915 157.6V146.2H76.9995V157.552C76.9995 158.384 76.8955 159.112 76.6875 159.736C76.4955 160.36 76.1995 160.896 75.7995 161.344C75.4155 161.792 74.9355 162.152 74.3595 162.424C73.7835 162.696 73.1195 162.896 72.3675 163.024C71.6315 163.168 70.8155 163.24 69.9195 163.24C69.0235 163.24 68.2075 163.168 67.4715 163.024C66.7355 162.896 66.0795 162.696 65.5035 162.424C64.9275 162.152 64.4395 161.792 64.0395 161.344C63.6555 160.896 63.3595 160.36 63.1515 159.736C62.9435 159.112 62.8395 158.384 62.8395 157.552ZM79.4606 163V146.2H83.5406V159.448H91.0766V163H79.4606ZM92.82 163V146.2H96.9V159.448H104.436V163H92.82Z" fill="white"/>
<path d="M49.32 163H48.32V164H49.32V163ZM49.32 146.2V145.2H48.32V146.2H49.32ZM61.272 146.2H62.272V145.2H61.272V146.2ZM61.272 149.752V150.752H62.272V149.752H61.272ZM53.4 149.752V148.752H52.4V149.752H53.4ZM53.4 153.928H52.4V154.928H53.4V153.928ZM60.24 153.928H61.24V152.928H60.24V153.928ZM60.24 157.36V158.36H61.24V157.36H60.24ZM53.424 157.36V156.36H52.424V157.36H53.424ZM53.424 163V164H54.424V163H53.424ZM50.32 163V146.2H48.32V163H50.32ZM49.32 147.2H61.272V145.2H49.32V147.2ZM60.272 146.2V149.752H62.272V146.2H60.272ZM61.272 148.752H53.4V150.752H61.272V148.752ZM52.4 149.752V153.928H54.4V149.752H52.4ZM53.4 154.928H60.24V152.928H53.4V154.928ZM59.24 153.928V157.36H61.24V153.928H59.24ZM60.24 156.36H53.424V158.36H60.24V156.36ZM52.424 157.36V163H54.424V157.36H52.424ZM53.424 162H49.32V164H53.424V162ZM62.8395 146.2V145.2H61.8395V146.2H62.8395ZM66.8475 146.2H67.8475V145.2H66.8475V146.2ZM66.9915 158.536L67.9345 158.203V158.203L66.9915 158.536ZM67.4235 159.208L66.7478 159.945L67.4235 159.208ZM68.9355 159.904L68.7295 160.883L68.7582 160.889L68.7872 160.893L68.9355 159.904ZM70.9275 159.904L71.0835 160.892L71.1036 160.889L71.1236 160.885L70.9275 159.904ZM71.7675 159.64L71.3667 158.724L71.3556 158.729L71.3446 158.734L71.7675 159.64ZM72.8475 158.512L73.7905 158.845V158.845L72.8475 158.512ZM72.9915 146.2V145.2H71.9915V146.2H72.9915ZM76.9995 146.2H77.9995V145.2H76.9995V146.2ZM76.6875 159.736L75.7388 159.42L75.7351 159.431L75.7317 159.442L76.6875 159.736ZM75.7995 161.344L75.0536 160.678L75.0468 160.686L75.0402 160.693L75.7995 161.344ZM74.3595 162.424L73.9325 161.52L74.3595 162.424ZM72.3675 163.024L72.1997 162.038L72.1876 162.04L72.1755 162.043L72.3675 163.024ZM67.4715 163.024L67.6635 162.043L67.6532 162.041L67.6428 162.039L67.4715 163.024ZM65.5035 162.424L65.9305 161.52L65.5035 162.424ZM64.0395 161.344L63.2802 161.995L63.2868 162.002L63.2936 162.01L64.0395 161.344ZM63.1515 159.736L64.1002 159.42V159.42L63.1515 159.736ZM63.8395 157.552V146.2H61.8395V157.552H63.8395ZM62.8395 147.2H66.8475V145.2H62.8395V147.2ZM65.8475 146.2V157.6H67.8475V146.2H65.8475ZM65.8475 157.6C65.8475 158.041 65.9075 158.469 66.0485 158.869L67.9345 158.203C67.8835 158.059 67.8475 157.863 67.8475 157.6H65.8475ZM66.0485 158.869C66.1931 159.279 66.4223 159.647 66.7478 159.945L68.0992 158.471C68.0407 158.417 67.9819 158.337 67.9345 158.203L66.0485 158.869ZM66.7478 159.945C67.0267 160.201 67.3452 160.403 67.6947 160.556L68.4963 158.724C68.3338 158.653 68.2043 158.567 68.0992 158.471L66.7478 159.945ZM67.6947 160.556C68.0198 160.698 68.3659 160.806 68.7295 160.883L69.1415 158.925C68.8971 158.874 68.6832 158.806 68.4963 158.724L67.6947 160.556ZM68.7872 160.893C69.1581 160.949 69.5357 160.976 69.9195 160.976V158.976C69.6313 158.976 69.3529 158.955 69.0838 158.915L68.7872 160.893ZM69.9195 160.976C70.33 160.976 70.719 160.949 71.0835 160.892L70.7715 158.916C70.528 158.955 70.245 158.976 69.9195 158.976V160.976ZM71.1236 160.885C71.5046 160.808 71.8636 160.699 72.1904 160.546L71.3446 158.734C71.1914 158.805 70.9904 158.872 70.7314 158.923L71.1236 160.885ZM72.1683 160.556C72.5246 160.4 72.8483 160.189 73.1226 159.915L71.7084 158.501C71.6307 158.579 71.5224 158.656 71.3667 158.724L72.1683 160.556ZM73.1226 159.915C73.4267 159.611 73.648 159.249 73.7905 158.845L71.9045 158.179C71.855 158.319 71.7883 158.421 71.7084 158.501L73.1226 159.915ZM73.7905 158.845C73.9299 158.45 73.9915 158.031 73.9915 157.6H71.9915C71.9915 157.841 71.9571 158.03 71.9045 158.179L73.7905 158.845ZM73.9915 157.6V146.2H71.9915V157.6H73.9915ZM72.9915 147.2H76.9995V145.2H72.9915V147.2ZM75.9995 146.2V157.552H77.9995V146.2H75.9995ZM75.9995 157.552C75.9995 158.304 75.9052 158.921 75.7388 159.42L77.6362 160.052C77.8858 159.303 77.9995 158.464 77.9995 157.552H75.9995ZM75.7317 159.442C75.5783 159.94 75.3495 160.346 75.0536 160.678L76.5454 162.01C77.0495 161.446 77.4127 160.78 77.6433 160.03L75.7317 159.442ZM75.0402 160.693C74.755 161.026 74.3914 161.303 73.9325 161.52L74.7865 163.328C75.4796 163.001 76.076 162.558 76.5588 161.995L75.0402 160.693ZM73.9325 161.52C73.4531 161.746 72.8791 161.923 72.1997 162.038L72.5353 164.01C73.3599 163.869 74.1139 163.646 74.7865 163.328L73.9325 161.52ZM72.1755 162.043C71.5135 162.172 70.7631 162.24 69.9195 162.24V164.24C70.8679 164.24 71.7495 164.164 72.5595 164.005L72.1755 162.043ZM69.9195 162.24C69.0759 162.24 68.3255 162.172 67.6635 162.043L67.2795 164.005C68.0895 164.164 68.9711 164.24 69.9195 164.24V162.24ZM67.6428 162.039C66.9805 161.924 66.4127 161.747 65.9305 161.52L65.0765 163.328C65.7463 163.645 66.4905 163.868 67.3002 164.009L67.6428 162.039ZM65.9305 161.52C65.4683 161.301 65.0908 161.02 64.7854 160.678L63.2936 162.01C63.7882 162.564 64.3868 163.003 65.0765 163.328L65.9305 161.52ZM64.7988 160.693C64.5081 160.354 64.272 159.935 64.1002 159.42L62.2028 160.052C62.447 160.785 62.8029 161.438 63.2802 161.995L64.7988 160.693ZM64.1002 159.42C63.9338 158.921 63.8395 158.304 63.8395 157.552H61.8395C61.8395 158.464 61.9532 159.303 62.2028 160.052L64.1002 159.42ZM79.4606 163H78.4606V164H79.4606V163ZM79.4606 146.2V145.2H78.4606V146.2H79.4606ZM83.5406 146.2H84.5406V145.2H83.5406V146.2ZM83.5406 159.448H82.5406V160.448H83.5406V159.448ZM91.0766 159.448H92.0766V158.448H91.0766V159.448ZM91.0766 163V164H92.0766V163H91.0766ZM80.4606 163V146.2H78.4606V163H80.4606ZM79.4606 147.2H83.5406V145.2H79.4606V147.2ZM82.5406 146.2V159.448H84.5406V146.2H82.5406ZM83.5406 160.448H91.0766V158.448H83.5406V160.448ZM90.0766 159.448V163H92.0766V159.448H90.0766ZM91.0766 162H79.4606V164H91.0766V162ZM92.82 163H91.82V164H92.82V163ZM92.82 146.2V145.2H91.82V146.2H92.82ZM96.9 146.2H97.9V145.2H96.9V146.2ZM96.9 159.448H95.9V160.448H96.9V159.448ZM104.436 159.448H105.436V158.448H104.436V159.448ZM104.436 163V164H105.436V163H104.436ZM93.82 163V146.2H91.82V163H93.82ZM92.82 147.2H96.9V145.2H92.82V147.2ZM95.9 146.2V159.448H97.9V146.2H95.9ZM96.9 160.448H104.436V158.448H96.9V160.448ZM103.436 159.448V163H105.436V159.448H103.436ZM104.436 162H92.82V164H104.436V162Z" fill="black"/>
<rect x="0.5" y="0.5" width="154" height="169" stroke="black"/>
</svg>
