<svg width="155" height="170" viewBox="0 0 155 170" fill="none" xmlns="http://www.w3.org/2000/svg">
<rect x="0.5" y="0.5" width="154" height="169" fill="#6F8E74"/>
<path d="M33.4286 124.111C33.4286 128.06 34.9939 131.847 37.7801 134.639C40.5664 137.431 44.3454 139 48.2857 139H107.714C111.655 139 115.434 137.431 118.22 134.639C121.006 131.847 122.571 128.06 122.571 124.111V34.7778H33.4286V124.111ZM48.2857 49.6667H107.714V124.111H48.2857V49.6667ZM104 12.4444L96.5714 5H59.4286L52 12.4444H26V27.3333H130V12.4444H104Z" fill="#111111"/>
<path d="M27.32 162V145.2H31.376V162H27.32ZM34.0231 162V145.176H37.8631L44.2231 155.736V145.2H47.8231V162.024H43.9831L37.6471 151.68V162H34.0231ZM49.3008 162L54.6288 145.128H59.5248L64.9248 162H60.4608L59.5728 158.88H54.4368L53.5488 162H49.3008ZM55.1808 155.544H58.8288L57.0048 148.272L55.1808 155.544ZM65.0872 153.864C65.0872 151.736 65.3912 150.024 65.9992 148.728C66.6072 147.416 67.5112 146.464 68.7112 145.872C69.9272 145.264 71.4472 144.96 73.2712 144.96C73.8312 144.96 74.3352 144.976 74.7832 145.008C75.2472 145.024 75.6792 145.064 76.0792 145.128C76.4952 145.192 76.8952 145.272 77.2792 145.368C77.6632 145.448 78.0552 145.552 78.4552 145.68L77.6392 148.896C77.1592 148.784 76.6952 148.696 76.2472 148.632C75.7992 148.552 75.3592 148.496 74.9272 148.464C74.5112 148.416 74.0872 148.392 73.6552 148.392C72.8712 148.392 72.1992 148.488 71.6392 148.68C71.0792 148.872 70.6232 149.176 70.2712 149.592C69.9192 150.008 69.6552 150.568 69.4792 151.272C69.3032 151.96 69.2152 152.816 69.2152 153.84C69.2152 154.768 69.2952 155.552 69.4552 156.192C69.6312 156.832 69.8952 157.344 70.2472 157.728C70.5992 158.112 71.0472 158.392 71.5912 158.568C72.1512 158.744 72.8072 158.832 73.5592 158.832C74.2632 158.832 75.0072 158.776 75.7912 158.664C76.5912 158.552 77.3272 158.408 77.9992 158.232L78.7192 161.424C78.3352 161.536 77.9352 161.648 77.5192 161.76C77.1032 161.856 76.6552 161.936 76.1752 162C75.7112 162.08 75.2072 162.136 74.6632 162.168C74.1192 162.216 73.5272 162.24 72.8872 162.24C71.5912 162.24 70.4552 162.088 69.4792 161.784C68.5032 161.48 67.6872 161 67.0312 160.344C66.3912 159.688 65.9032 158.824 65.5672 157.752C65.2472 156.68 65.0872 155.384 65.0872 153.864ZM93.4608 148.776H88.5168V162H84.4608V148.776H79.5168V145.2H93.4608V148.776ZM95.1481 162V145.2H99.2041V162H95.1481ZM106.003 162L100.555 145.224L105.019 145.176L108.427 158.448L111.763 145.176L116.227 145.224L110.827 162H106.003ZM117.554 162V145.2H129.602V148.656H121.61V151.824H129.002V155.088H121.61V158.568H130.034V162H117.554Z" fill="white"/>
<path d="M27.32 162H26.32V163H27.32V162ZM27.32 145.2V144.2H26.32V145.2H27.32ZM31.376 145.2H32.376V144.2H31.376V145.2ZM31.376 162V163H32.376V162H31.376ZM28.32 162V145.2H26.32V162H28.32ZM27.32 146.2H31.376V144.2H27.32V146.2ZM30.376 145.2V162H32.376V145.2H30.376ZM31.376 161H27.32V163H31.376V161ZM34.0231 162H33.0231V163H34.0231V162ZM34.0231 145.176V144.176H33.0231V145.176H34.0231ZM37.8631 145.176L38.7198 144.66L38.4282 144.176H37.8631V145.176ZM44.2231 155.736L43.3665 156.252L45.2231 159.335V155.736H44.2231ZM44.2231 145.2V144.2H43.2231V145.2H44.2231ZM47.8231 145.2H48.8231V144.2H47.8231V145.2ZM47.8231 162.024V163.024H48.8231V162.024H47.8231ZM43.9831 162.024L43.1304 162.546L43.423 163.024H43.9831V162.024ZM37.6471 151.68L38.4999 151.158L36.6471 148.133V151.68H37.6471ZM37.6471 162V163H38.6471V162H37.6471ZM35.0231 162V145.176H33.0231V162H35.0231ZM34.0231 146.176H37.8631V144.176H34.0231V146.176ZM37.0065 145.692L43.3665 156.252L45.0798 155.22L38.7198 144.66L37.0065 145.692ZM45.2231 155.736V145.2H43.2231V155.736H45.2231ZM44.2231 146.2H47.8231V144.2H44.2231V146.2ZM46.8231 145.2V162.024H48.8231V145.2H46.8231ZM47.8231 161.024H43.9831V163.024H47.8231V161.024ZM44.8359 161.502L38.4999 151.158L36.7944 152.202L43.1304 162.546L44.8359 161.502ZM36.6471 151.68V162H38.6471V151.68H36.6471ZM37.6471 161H34.0231V163H37.6471V161ZM49.3008 162L48.3472 161.699L47.9363 163H49.3008V162ZM54.6288 145.128V144.128H53.8959L53.6752 144.827L54.6288 145.128ZM59.5248 145.128L60.4772 144.823L60.2547 144.128H59.5248V145.128ZM64.9248 162V163H66.2948L65.8772 161.695L64.9248 162ZM60.4608 162L59.499 162.274L59.7057 163H60.4608V162ZM59.5728 158.88L60.5346 158.606L60.3279 157.88H59.5728V158.88ZM54.4368 158.88V157.88H53.6817L53.475 158.606L54.4368 158.88ZM53.5488 162V163H54.3039L54.5106 162.274L53.5488 162ZM55.1808 155.544L54.2109 155.301L53.899 156.544H55.1808V155.544ZM58.8288 155.544V156.544H60.1106L59.7988 155.301L58.8288 155.544ZM57.0048 148.272L57.9748 148.029H56.0349L57.0048 148.272ZM50.2544 162.301L55.5824 145.429L53.6752 144.827L48.3472 161.699L50.2544 162.301ZM54.6288 146.128H59.5248V144.128H54.6288V146.128ZM58.5724 145.433L63.9724 162.305L65.8772 161.695L60.4772 144.823L58.5724 145.433ZM64.9248 161H60.4608V163H64.9248V161ZM61.4226 161.726L60.5346 158.606L58.611 159.154L59.499 162.274L61.4226 161.726ZM59.5728 157.88H54.4368V159.88H59.5728V157.88ZM53.475 158.606L52.587 161.726L54.5106 162.274L55.3986 159.154L53.475 158.606ZM53.5488 161H49.3008V163H53.5488V161ZM55.1808 156.544H58.8288V154.544H55.1808V156.544ZM59.7988 155.301L57.9748 148.029L56.0349 148.515L57.8589 155.787L59.7988 155.301ZM56.0349 148.029L54.2109 155.301L56.1508 155.787L57.9748 148.515L56.0349 148.029ZM65.9992 148.728L66.9045 149.153L66.9065 149.148L65.9992 148.728ZM68.7112 145.872L69.1536 146.769L69.1584 146.766L68.7112 145.872ZM74.7832 145.008L74.7119 146.005L74.7303 146.007L74.7487 146.007L74.7832 145.008ZM76.0792 145.128L75.9212 146.115L75.9271 146.116L76.0792 145.128ZM77.2792 145.368L77.0367 146.338L77.0559 146.343L77.0752 146.347L77.2792 145.368ZM78.4552 145.68L79.4245 145.926L79.6558 145.014L78.76 144.728L78.4552 145.68ZM77.6392 148.896L77.412 149.87L78.3672 150.093L78.6085 149.142L77.6392 148.896ZM76.2472 148.632L76.0714 149.616L76.0885 149.619L76.1058 149.622L76.2472 148.632ZM74.9272 148.464L74.8126 149.457L74.8329 149.46L74.8533 149.461L74.9272 148.464ZM71.6392 148.68L71.9635 149.626L71.9635 149.626L71.6392 148.68ZM70.2712 149.592L71.0346 150.238L71.0346 150.238L70.2712 149.592ZM69.4792 151.272L70.448 151.52L70.4493 151.515L69.4792 151.272ZM69.4552 156.192L68.485 156.435L68.4879 156.446L68.491 156.457L69.4552 156.192ZM70.2472 157.728L69.51 158.404L69.51 158.404L70.2472 157.728ZM71.5912 158.568L71.2834 159.519L71.2914 159.522L71.5912 158.568ZM75.7912 158.664L75.6525 157.674L75.6498 157.674L75.7912 158.664ZM77.9992 158.232L78.9747 158.012L78.747 157.002L77.7458 157.265L77.9992 158.232ZM78.7192 161.424L78.9992 162.384L79.9015 162.121L79.6947 161.204L78.7192 161.424ZM77.5192 161.76L77.744 162.734L77.7617 162.73L77.7792 162.726L77.5192 161.76ZM76.1752 162L76.043 161.009L76.0241 161.011L76.0053 161.015L76.1752 162ZM74.6632 162.168L74.6045 161.17L74.5899 161.171L74.5753 161.172L74.6632 162.168ZM69.4792 161.784L69.7766 160.829L69.4792 161.784ZM67.0312 160.344L66.3154 161.042L66.3241 161.051L67.0312 160.344ZM65.5672 157.752L64.6089 158.038L64.613 158.051L65.5672 157.752ZM66.0872 153.864C66.0872 151.817 66.3817 150.267 66.9045 149.153L65.0939 148.303C64.4007 149.781 64.0872 151.655 64.0872 153.864H66.0872ZM66.9065 149.148C67.4268 148.026 68.1754 147.251 69.1536 146.769L68.2688 144.975C66.8469 145.677 65.7876 146.806 65.0919 148.308L66.9065 149.148ZM69.1584 146.766C70.1964 146.247 71.5518 145.96 73.2712 145.96V143.96C71.3425 143.96 69.6579 144.281 68.264 144.978L69.1584 146.766ZM73.2712 145.96C73.8129 145.96 74.2926 145.976 74.7119 146.005L74.8544 144.011C74.3778 143.976 73.8494 143.96 73.2712 143.96V145.96ZM74.7487 146.007C75.1772 146.022 75.5675 146.059 75.9212 146.115L76.2372 144.141C75.7909 144.069 75.3172 144.026 74.8176 144.009L74.7487 146.007ZM75.9271 146.116C76.3146 146.176 76.6843 146.25 77.0367 146.338L77.5217 144.398C77.1061 144.294 76.6758 144.208 76.2312 144.14L75.9271 146.116ZM77.0752 146.347C77.4229 146.419 77.7812 146.514 78.1504 146.632L78.76 144.728C78.3291 144.59 77.9035 144.477 77.4831 144.389L77.0752 146.347ZM77.4859 145.434L76.6699 148.65L78.6085 149.142L79.4245 145.926L77.4859 145.434ZM77.8664 147.922C77.3605 147.804 76.8678 147.711 76.3886 147.642L76.1058 149.622C76.5225 149.681 76.9578 149.764 77.412 149.87L77.8664 147.922ZM76.423 147.648C75.9429 147.562 75.4689 147.501 75.0011 147.467L74.8533 149.461C75.2495 149.491 75.6554 149.542 76.0714 149.616L76.423 147.648ZM75.0418 147.471C74.5866 147.418 74.1243 147.392 73.6552 147.392V149.392C74.0501 149.392 74.4358 149.414 74.8126 149.457L75.0418 147.471ZM73.6552 147.392C72.7945 147.392 72.0069 147.497 71.3149 147.734L71.9635 149.626C72.3915 149.479 72.9479 149.392 73.6552 149.392V147.392ZM71.3149 147.734C70.5994 147.979 69.9864 148.38 69.5078 148.946L71.0346 150.238C71.26 149.972 71.559 149.765 71.9635 149.626L71.3149 147.734ZM69.5078 148.946C69.0297 149.511 68.7104 150.224 68.509 151.029L70.4493 151.515C70.6 150.912 70.8086 150.505 71.0346 150.238L69.5078 148.946ZM68.5104 151.024C68.3068 151.82 68.2152 152.766 68.2152 153.84H70.2152C70.2152 152.866 70.2996 152.1 70.448 151.52L68.5104 151.024ZM68.2152 153.84C68.2152 154.819 68.299 155.69 68.485 156.435L70.4253 155.949C70.2914 155.414 70.2152 154.717 70.2152 153.84H68.2152ZM68.491 156.457C68.6978 157.209 69.0255 157.875 69.51 158.404L70.9843 157.052C70.7648 156.813 70.5646 156.455 70.4194 155.927L68.491 156.457ZM69.51 158.404C69.9901 158.927 70.5913 159.296 71.2834 159.519L71.899 157.617C71.5031 157.488 71.2083 157.297 70.9843 157.052L69.51 158.404ZM71.2914 159.522C71.9712 159.736 72.7326 159.832 73.5592 159.832V157.832C72.8818 157.832 72.3312 157.752 71.891 157.614L71.2914 159.522ZM73.5592 159.832C74.3159 159.832 75.1075 159.772 75.9326 159.654L75.6498 157.674C74.9069 157.78 74.2104 157.832 73.5592 157.832V159.832ZM75.9298 159.654C76.7624 159.538 77.5373 159.387 78.2525 159.199L77.7458 157.265C77.1171 157.429 76.4199 157.566 75.6525 157.674L75.9298 159.654ZM77.0237 158.452L77.7437 161.644L79.6947 161.204L78.9747 158.012L77.0237 158.452ZM78.4392 160.464C78.0623 160.574 77.669 160.684 77.2592 160.794L77.7792 162.726C78.2014 162.612 78.608 162.498 78.9992 162.384L78.4392 160.464ZM77.2943 160.786C76.9127 160.874 76.4959 160.948 76.043 161.009L76.3074 162.991C76.8144 162.924 77.2937 162.838 77.744 162.734L77.2943 160.786ZM76.0053 161.015C75.5833 161.087 75.1168 161.14 74.6045 161.17L74.7219 163.166C75.2975 163.132 75.8391 163.073 76.3451 162.985L76.0053 161.015ZM74.5753 161.172C74.065 161.217 73.5027 161.24 72.8872 161.24V163.24C73.5517 163.24 74.1734 163.215 74.7511 163.164L74.5753 161.172ZM72.8872 161.24C71.6664 161.24 70.6345 161.096 69.7766 160.829L69.1818 162.739C70.2758 163.08 71.516 163.24 72.8872 163.24V161.24ZM69.7766 160.829C68.9391 160.568 68.2685 160.167 67.7383 159.637L66.3241 161.051C67.1059 161.833 68.0672 162.392 69.1818 162.739L69.7766 160.829ZM67.747 159.646C67.2388 159.125 66.8209 158.408 66.5214 157.453L64.613 158.051C64.9855 159.24 65.5436 160.251 66.3154 161.042L67.747 159.646ZM66.5254 157.466C66.241 156.513 66.0872 155.319 66.0872 153.864H64.0872C64.0872 155.449 64.2534 156.847 64.609 158.038L66.5254 157.466ZM93.4608 148.776V149.776H94.4608V148.776H93.4608ZM88.5168 148.776V147.776H87.5168V148.776H88.5168ZM88.5168 162V163H89.5168V162H88.5168ZM84.4608 162H83.4608V163H84.4608V162ZM84.4608 148.776H85.4608V147.776H84.4608V148.776ZM79.5168 148.776H78.5168V149.776H79.5168V148.776ZM79.5168 145.2V144.2H78.5168V145.2H79.5168ZM93.4608 145.2H94.4608V144.2H93.4608V145.2ZM93.4608 147.776H88.5168V149.776H93.4608V147.776ZM87.5168 148.776V162H89.5168V148.776H87.5168ZM88.5168 161H84.4608V163H88.5168V161ZM85.4608 162V148.776H83.4608V162H85.4608ZM84.4608 147.776H79.5168V149.776H84.4608V147.776ZM80.5168 148.776V145.2H78.5168V148.776H80.5168ZM79.5168 146.2H93.4608V144.2H79.5168V146.2ZM92.4608 145.2V148.776H94.4608V145.2H92.4608ZM95.1481 162H94.1481V163H95.1481V162ZM95.1481 145.2V144.2H94.1481V145.2H95.1481ZM99.2041 145.2H100.204V144.2H99.2041V145.2ZM99.2041 162V163H100.204V162H99.2041ZM96.1481 162V145.2H94.1481V162H96.1481ZM95.1481 146.2H99.2041V144.2H95.1481V146.2ZM98.2041 145.2V162H100.204V145.2H98.2041ZM99.2041 161H95.1481V163H99.2041V161ZM106.003 162L105.052 162.309L105.277 163H106.003V162ZM100.555 145.224L100.544 144.224L99.1839 144.239L99.6041 145.533L100.555 145.224ZM105.019 145.176L105.988 144.927L105.793 144.168L105.008 144.176L105.019 145.176ZM108.427 158.448L107.459 158.697L109.397 158.692L108.427 158.448ZM111.763 145.176L111.774 144.176L110.986 144.168L110.793 144.932L111.763 145.176ZM116.227 145.224L117.179 145.53L117.595 144.239L116.238 144.224L116.227 145.224ZM110.827 162V163H111.556L111.779 162.306L110.827 162ZM106.954 161.691L101.506 144.915L99.6041 145.533L105.052 162.309L106.954 161.691ZM100.566 146.224L105.03 146.176L105.008 144.176L100.544 144.224L100.566 146.224ZM104.051 145.425L107.459 158.697L109.396 158.199L105.988 144.927L104.051 145.425ZM109.397 158.692L112.733 145.42L110.793 144.932L107.457 158.204L109.397 158.692ZM111.752 146.176L116.216 146.224L116.238 144.224L111.774 144.176L111.752 146.176ZM115.275 144.918L109.875 161.694L111.779 162.306L117.179 145.53L115.275 144.918ZM110.827 161H106.003V163H110.827V161ZM117.554 162H116.554V163H117.554V162ZM117.554 145.2V144.2H116.554V145.2H117.554ZM129.602 145.2H130.602V144.2H129.602V145.2ZM129.602 148.656V149.656H130.602V148.656H129.602ZM121.61 148.656V147.656H120.61V148.656H121.61ZM121.61 151.824H120.61V152.824H121.61V151.824ZM129.002 151.824H130.002V150.824H129.002V151.824ZM129.002 155.088V156.088H130.002V155.088H129.002ZM121.61 155.088V154.088H120.61V155.088H121.61ZM121.61 158.568H120.61V159.568H121.61V158.568ZM130.034 158.568H131.034V157.568H130.034V158.568ZM130.034 162V163H131.034V162H130.034ZM118.554 162V145.2H116.554V162H118.554ZM117.554 146.2H129.602V144.2H117.554V146.2ZM128.602 145.2V148.656H130.602V145.2H128.602ZM129.602 147.656H121.61V149.656H129.602V147.656ZM120.61 148.656V151.824H122.61V148.656H120.61ZM121.61 152.824H129.002V150.824H121.61V152.824ZM128.002 151.824V155.088H130.002V151.824H128.002ZM129.002 154.088H121.61V156.088H129.002V154.088ZM120.61 155.088V158.568H122.61V155.088H120.61ZM121.61 159.568H130.034V157.568H121.61V159.568ZM129.034 158.568V162H131.034V158.568H129.034ZM130.034 161H117.554V163H130.034V161Z" fill="black"/>
<path fill-rule="evenodd" clip-rule="evenodd" d="M103.315 56.124C104.229 56.886 104.803 57.9797 104.911 59.1648C105.019 60.3498 104.651 61.529 103.89 62.4434L83.8418 86.5L103.89 110.557C104.284 111.007 104.584 111.532 104.772 112.1C104.96 112.668 105.033 113.268 104.986 113.864C104.939 114.461 104.773 115.042 104.498 115.574C104.223 116.105 103.845 116.577 103.385 116.96C102.925 117.343 102.393 117.63 101.821 117.805C101.248 117.979 100.647 118.038 100.052 117.976C99.4562 117.915 98.8791 117.735 98.3542 117.448C97.8294 117.16 97.3674 116.77 96.9954 116.302L78 93.5105L59.0069 116.302C58.6326 116.764 58.1703 117.147 57.6467 117.429C57.1231 117.711 56.5487 117.886 55.9568 117.944C55.365 118.002 54.7675 117.941 54.1991 117.767C53.6308 117.592 53.1028 117.306 52.6459 116.925C52.189 116.545 51.8123 116.077 51.5376 115.55C51.263 115.022 51.0959 114.445 51.0461 113.853C50.9962 113.26 51.0647 112.664 51.2474 112.098C51.43 111.532 51.7234 111.008 52.1103 110.557L72.1582 86.5L52.1103 62.4434C51.7162 61.9929 51.4162 61.4683 51.2279 60.9002C51.0396 60.3321 50.9668 59.7321 51.0139 59.1355C51.0609 58.5389 51.2268 57.9577 51.5018 57.4262C51.7767 56.8946 52.1552 56.4234 52.615 56.0403C53.0748 55.6571 53.6066 55.3698 54.1791 55.1952C54.7515 55.0206 55.3531 54.9623 55.9485 55.0236C56.5438 55.085 57.1209 55.2647 57.6458 55.5524C58.1706 55.84 58.6326 56.2297 59.0046 56.6985L78 79.4895L96.9954 56.6985C97.7574 55.7846 98.8512 55.2107 100.036 55.103C101.221 54.9953 102.401 55.3625 103.315 56.124Z" fill="#F24E1E"/>
<rect x="0.5" y="0.5" width="154" height="169" stroke="black"/>
</svg>
