<svg width="309" height="92" viewBox="0 0 309 92" fill="none" xmlns="http://www.w3.org/2000/svg">
<g clip-path="url(#clip0_311_31)">
<rect width="309" height="92" fill="#D9D9D9"/>
<rect x="-26" y="-18" width="241" height="119" fill="#6F8E74"/>
<path d="M238.15 39.425H232.775V55H230.625V39.425H225.25V37.5H238.15V39.425ZM240.153 55V37.5H242.303V55H240.153ZM245.842 55V37.5H248.042L253.642 46.55L259.217 37.5H261.342V55H259.367V40.8L254.092 49.225H253.042L247.817 40.825V55H245.842ZM264.585 49.725V37.5H266.71V49.75C266.71 50.35 266.794 50.8667 266.96 51.3C267.127 51.7333 267.36 52.0917 267.66 52.375C267.96 52.6417 268.31 52.8583 268.71 53.025C269.11 53.1917 269.527 53.3083 269.96 53.375C270.41 53.425 270.86 53.45 271.31 53.45C271.777 53.45 272.227 53.4167 272.66 53.35C273.11 53.2833 273.527 53.175 273.91 53.025C274.294 52.8583 274.635 52.6333 274.935 52.35C275.235 52.0667 275.469 51.7167 275.635 51.3C275.802 50.8667 275.885 50.35 275.885 49.75V37.5H278.01V49.725C278.01 50.5917 277.894 51.3417 277.66 51.975C277.444 52.5917 277.127 53.1167 276.71 53.55C276.294 53.9667 275.802 54.3 275.235 54.55C274.685 54.8 274.077 54.975 273.41 55.075C272.744 55.1917 272.035 55.25 271.285 55.25C270.569 55.25 269.869 55.1917 269.185 55.075C268.519 54.975 267.902 54.8 267.335 54.55C266.785 54.3 266.302 53.9667 265.885 53.55C265.469 53.1167 265.144 52.5917 264.91 51.975C264.694 51.3417 264.585 50.5917 264.585 49.725ZM294.867 55.25C294.451 55.25 294.026 55.1667 293.592 55C293.176 54.85 292.742 54.6 292.292 54.25C291.842 53.9 291.376 53.45 290.892 52.9C290.426 52.35 289.926 51.6833 289.392 50.9C288.859 50.1167 288.301 49.2083 287.717 48.175C287.534 48.1917 287.317 48.2 287.067 48.2C286.817 48.2 286.609 48.2 286.442 48.2C285.976 48.2 285.484 48.2 284.967 48.2C284.451 48.2 283.942 48.1917 283.442 48.175V55H281.267V37.45C282.001 37.4 282.676 37.3667 283.292 37.35C283.909 37.3167 284.492 37.2917 285.042 37.275C285.592 37.2583 286.151 37.25 286.717 37.25C288.001 37.25 289.092 37.3417 289.992 37.525C290.892 37.6917 291.626 37.975 292.192 38.375C292.759 38.775 293.176 39.3083 293.442 39.975C293.709 40.625 293.842 41.425 293.842 42.375C293.842 43.4083 293.684 44.2833 293.367 45C293.067 45.7 292.617 46.2667 292.017 46.7C291.417 47.1167 290.692 47.4333 289.842 47.65C290.426 48.65 290.976 49.5 291.492 50.2C292.009 50.9 292.484 51.4667 292.917 51.9C293.351 52.3167 293.742 52.6333 294.092 52.85C294.459 53.05 294.792 53.15 295.092 53.15C295.126 53.15 295.184 53.15 295.267 53.15C295.351 53.1333 295.417 53.1167 295.467 53.1L295.517 55.175C295.434 55.1917 295.342 55.2083 295.242 55.225C295.142 55.2417 295.017 55.25 294.867 55.25ZM286.817 46.4C287.651 46.4 288.367 46.3333 288.967 46.2C289.567 46.0667 290.059 45.8583 290.442 45.575C290.842 45.275 291.134 44.8917 291.317 44.425C291.501 43.9417 291.592 43.35 291.592 42.65C291.592 41.75 291.442 41.0333 291.142 40.5C290.859 39.9667 290.367 39.5833 289.667 39.35C288.967 39.1167 288.001 39 286.767 39C286.434 39 286.134 39 285.867 39C285.617 39 285.376 39.0083 285.142 39.025C284.909 39.0417 284.651 39.0583 284.367 39.075C284.101 39.075 283.792 39.0917 283.442 39.125V46.325C283.759 46.3417 284.059 46.3583 284.342 46.375C284.626 46.375 284.901 46.3833 285.167 46.4C285.451 46.4 285.726 46.4 285.992 46.4C286.259 46.4 286.534 46.4 286.817 46.4Z" fill="#6F8E74"/>
</g>
<rect x="1" y="1" width="307" height="90" stroke="black" stroke-width="2"/>
<defs>
<clipPath id="clip0_311_31">
<rect width="309" height="92" fill="white"/>
</clipPath>
</defs>
</svg>
