<svg width="127" height="54" viewBox="0 0 127 54" fill="none" xmlns="http://www.w3.org/2000/svg">
<rect width="127" height="54" fill="#162607"/>
<path d="M25.8311 36V18.1045H28.1992V33.8882H37.0127V36H25.8311ZM39.1245 27.2842C39.1245 24.3138 39.922 21.9904 41.5171 20.314C43.1121 18.6294 45.1711 17.7871 47.6938 17.7871C49.3459 17.7871 50.8351 18.1818 52.1616 18.9712C53.4881 19.7606 54.4972 20.8633 55.189 22.2793C55.8888 23.6872 56.2388 25.2863 56.2388 27.0767C56.2388 28.8914 55.8726 30.515 55.1401 31.9473C54.4077 33.3796 53.3701 34.466 52.0273 35.2065C50.6846 35.939 49.236 36.3052 47.6816 36.3052C45.9971 36.3052 44.4915 35.8983 43.165 35.0845C41.8385 34.2707 40.8335 33.1598 40.1499 31.752C39.4663 30.3441 39.1245 28.8548 39.1245 27.2842ZM41.5659 27.3208C41.5659 29.4774 42.1437 31.1782 43.2993 32.4233C44.4631 33.6603 45.9198 34.2788 47.6694 34.2788C49.4517 34.2788 50.9165 33.6522 52.064 32.3989C53.2196 31.1457 53.7974 29.3675 53.7974 27.0645C53.7974 25.6077 53.5492 24.3382 53.0527 23.2559C52.5645 22.1654 51.8442 21.3231 50.8921 20.729C49.9481 20.1268 48.8861 19.8257 47.7061 19.8257C46.0296 19.8257 44.5851 20.4035 43.3726 21.5591C42.1681 22.7065 41.5659 24.6271 41.5659 27.3208ZM67.6768 28.981V26.8813L75.2573 26.8691V33.5098C74.0936 34.4375 72.8932 35.1374 71.6562 35.6094C70.4193 36.0732 69.1497 36.3052 67.8477 36.3052C66.0898 36.3052 64.4907 35.9308 63.0503 35.1821C61.618 34.4253 60.5356 33.3348 59.8032 31.9106C59.0708 30.4865 58.7046 28.8955 58.7046 27.1377C58.7046 25.3962 59.0667 23.7726 59.791 22.2671C60.5234 20.7534 61.5732 19.6304 62.9404 18.8979C64.3076 18.1655 65.8823 17.7993 67.6646 17.7993C68.9585 17.7993 70.1263 18.0109 71.168 18.4341C72.2178 18.8491 73.0397 19.431 73.6338 20.1797C74.2279 20.9284 74.6795 21.9049 74.9888 23.1094L72.8525 23.6953C72.584 22.7839 72.2503 22.0677 71.8516 21.5469C71.4528 21.026 70.8831 20.611 70.1426 20.3018C69.402 19.9844 68.5801 19.8257 67.6768 19.8257C66.5944 19.8257 65.6585 19.9925 64.8691 20.3262C64.0798 20.6517 63.4409 21.083 62.9526 21.6201C62.4725 22.1572 62.0981 22.7472 61.8296 23.3901C61.3739 24.4969 61.146 25.6973 61.146 26.9912C61.146 28.5863 61.4186 29.9209 61.9639 30.9951C62.5173 32.0693 63.3188 32.8669 64.3687 33.3877C65.4185 33.9085 66.5334 34.1689 67.7134 34.1689C68.7388 34.1689 69.7397 33.9736 70.7163 33.583C71.6929 33.1842 72.4334 32.7611 72.938 32.3135V28.981H67.6768ZM79.1636 36V18.1045H81.5317V36H79.1636ZM85.6943 36V18.1045H88.1235L97.5229 32.1548V18.1045H99.7935V36H97.3643L87.9648 21.9375V36H85.6943Z" fill="white"/>
</svg>
