<svg width="309" height="92" viewBox="0 0 309 92" fill="none" xmlns="http://www.w3.org/2000/svg">
<g clip-path="url(#clip0_311_29)">
<rect width="309" height="92" fill="#D9D9D9"/>
<path d="M12.775 55V37.55C13.6583 37.4667 14.4417 37.4083 15.125 37.375C15.825 37.3417 16.4583 37.3167 17.025 37.3C17.6083 37.2667 18.1583 37.25 18.675 37.25C20.1417 37.25 21.3083 37.4 22.175 37.7C23.0583 37.9833 23.7 38.4417 24.1 39.075C24.5167 39.7083 24.725 40.5333 24.725 41.55C24.725 42.55 24.4833 43.4167 24 44.15C23.5333 44.8667 22.8833 45.375 22.05 45.675V45.7C23.1667 45.95 24.0333 46.4667 24.65 47.25C25.2833 48.0167 25.6 48.9833 25.6 50.15C25.6 51.05 25.475 51.825 25.225 52.475C24.975 53.125 24.5833 53.65 24.05 54.05C23.5167 54.45 22.8167 54.75 21.95 54.95C21.1 55.15 20.05 55.25 18.8 55.25C18.4 55.25 18.0167 55.2417 17.65 55.225C17.3 55.225 16.9583 55.2167 16.625 55.2C16.3083 55.2 15.9583 55.1833 15.575 55.15C15.2083 55.1333 14.8 55.1083 14.35 55.075C13.9 55.0583 13.375 55.0333 12.775 55ZM14.95 45.25H19.65C20.2667 45.25 20.8 45.1167 21.25 44.85C21.7 44.5833 22.05 44.2167 22.3 43.75C22.55 43.2667 22.675 42.7167 22.675 42.1C22.675 41.3833 22.5333 40.8 22.25 40.35C21.9833 39.8833 21.5417 39.55 20.925 39.35C20.325 39.1333 19.5167 39.025 18.5 39.025C18.2333 39.025 18 39.025 17.8 39.025C17.6 39.025 17.4 39.0333 17.2 39.05C17.0167 39.05 16.825 39.0583 16.625 39.075C16.425 39.075 16.1833 39.0833 15.9 39.1C15.6333 39.1167 15.3167 39.1417 14.95 39.175V45.25ZM14.95 53.3C15.4333 53.3333 15.85 53.3667 16.2 53.4C16.5667 53.4167 16.8917 53.4333 17.175 53.45C17.4583 53.45 17.7167 53.4583 17.95 53.475C18.1833 53.475 18.425 53.475 18.675 53.475C19.8417 53.475 20.7667 53.3667 21.45 53.15C22.1333 52.9167 22.625 52.55 22.925 52.05C23.225 51.55 23.375 50.8917 23.375 50.075C23.375 49.075 23.0667 48.3 22.45 47.75C21.8333 47.2 20.9333 46.925 19.75 46.925H14.95V53.3ZM26.5344 55L32.5344 37.325H34.9594L40.9844 55H38.6094L37.1094 50.475H30.2844L28.7844 55H26.5344ZM30.7344 48.675H36.6844L33.7094 39.425L30.7344 48.675ZM56.624 55.25C56.2074 55.25 55.7824 55.1667 55.349 55C54.9324 54.85 54.499 54.6 54.049 54.25C53.599 53.9 53.1324 53.45 52.649 52.9C52.1824 52.35 51.6824 51.6833 51.149 50.9C50.6157 50.1167 50.0574 49.2083 49.474 48.175C49.2907 48.1917 49.074 48.2 48.824 48.2C48.574 48.2 48.3657 48.2 48.199 48.2C47.7324 48.2 47.2407 48.2 46.724 48.2C46.2074 48.2 45.699 48.1917 45.199 48.175V55H43.024V37.45C43.7574 37.4 44.4324 37.3667 45.049 37.35C45.6657 37.3167 46.249 37.2917 46.799 37.275C47.349 37.2583 47.9074 37.25 48.474 37.25C49.7574 37.25 50.849 37.3417 51.749 37.525C52.649 37.6917 53.3824 37.975 53.949 38.375C54.5157 38.775 54.9324 39.3083 55.199 39.975C55.4657 40.625 55.599 41.425 55.599 42.375C55.599 43.4083 55.4407 44.2833 55.124 45C54.824 45.7 54.374 46.2667 53.774 46.7C53.174 47.1167 52.449 47.4333 51.599 47.65C52.1824 48.65 52.7324 49.5 53.249 50.2C53.7657 50.9 54.2407 51.4667 54.674 51.9C55.1074 52.3167 55.499 52.6333 55.849 52.85C56.2157 53.05 56.549 53.15 56.849 53.15C56.8824 53.15 56.9407 53.15 57.024 53.15C57.1074 53.1333 57.174 53.1167 57.224 53.1L57.274 55.175C57.1907 55.1917 57.099 55.2083 56.999 55.225C56.899 55.2417 56.774 55.25 56.624 55.25ZM48.574 46.4C49.4074 46.4 50.124 46.3333 50.724 46.2C51.324 46.0667 51.8157 45.8583 52.199 45.575C52.599 45.275 52.8907 44.8917 53.074 44.425C53.2574 43.9417 53.349 43.35 53.349 42.65C53.349 41.75 53.199 41.0333 52.899 40.5C52.6157 39.9667 52.124 39.5833 51.424 39.35C50.724 39.1167 49.7574 39 48.524 39C48.1907 39 47.8907 39 47.624 39C47.374 39 47.1324 39.0083 46.899 39.025C46.6657 39.0417 46.4074 39.0583 46.124 39.075C45.8574 39.075 45.549 39.0917 45.199 39.125V46.325C45.5157 46.3417 45.8157 46.3583 46.099 46.375C46.3824 46.375 46.6574 46.3833 46.924 46.4C47.2074 46.4 47.4824 46.4 47.749 46.4C48.0157 46.4 48.2907 46.4 48.574 46.4ZM57.9064 55L63.9064 37.325H66.3314L72.3564 55H69.9814L68.4814 50.475H61.6564L60.1564 55H57.9064ZM62.1064 48.675H68.0564L65.0814 39.425L62.1064 48.675ZM84.0865 39.425H78.7115V55H76.5615V39.425H71.1865V37.5H84.0865V39.425Z" fill="#6F8E74"/>
<rect x="88" y="-11" width="241" height="119" fill="#6F8E74"/>
</g>
<rect x="1" y="1" width="307" height="90" stroke="black" stroke-width="2"/>
<defs>
<clipPath id="clip0_311_29">
<rect width="309" height="92" fill="white"/>
</clipPath>
</defs>
</svg>
