<svg width="232" height="226" viewBox="0 0 232 226" fill="none" xmlns="http://www.w3.org/2000/svg">
<path d="M46.4453 31.9C46.0828 31.9 45.675 31.9453 45.3125 31.9997C31.2702 34.4058 17.1825 65.5672 12.5063 76.85H115.275L120.667 66.0203C115.048 56.9578 104.672 43.2009 94.25 43.7809C87.4078 44.1434 74.3125 59.1781 74.3125 59.1781C74.3125 59.1781 58.2719 31.7595 46.4453 31.9ZM134.85 56.0062L120.35 85.0063H84.2359L65.7937 128.053C75.7625 129.548 84.5531 134.714 90.7156 142.1H130.409C132.584 139.472 135.077 137.161 137.841 135.167L150.8 76.85H172.958L180.344 56.0062H134.85ZM9.51562 85.0063V121.256L15.6645 122.842L31.8864 85.0063H9.51562ZM40.7405 85.0063L23.6259 124.927L35.2078 127.962L53.6047 85.0063H40.7405ZM62.4859 85.0063L43.1737 130.047L44.8503 130.5C48.6656 128.959 52.7891 127.962 57.0938 127.691L75.3547 85.0063H62.4859ZM157.325 85.0063L147.311 130.092C151.661 128.506 156.419 127.6 161.312 127.6C179.573 127.6 195.116 139.88 200.009 156.6H222.484V120.123L201.414 113.1L194.391 85.0063H178.667H157.325ZM165.391 91.35H186.234L191.898 114.006H159.727L164.62 94.4312L165.391 91.35ZM59.8125 135.756C41.9956 135.756 27.6406 150.12 27.6406 167.928C27.6406 185.736 41.9956 200.1 59.8125 200.1C77.6203 200.1 91.9844 185.736 91.9844 167.928C91.9844 150.12 77.6203 135.756 59.8125 135.756ZM161.312 135.756C143.505 135.756 129.141 150.12 129.141 167.928C129.141 185.736 143.505 200.1 161.312 200.1C179.12 200.1 193.484 185.736 193.484 167.928C193.484 150.12 179.12 135.756 161.312 135.756ZM16.0316 150.256L10.4128 178.35H20.8573C19.9647 175.042 19.4844 171.508 19.4844 167.928C19.4844 161.584 20.957 155.603 23.5806 150.256H16.0316ZM96.0625 150.256C98.6453 155.603 100.141 161.584 100.141 167.928C100.141 171.508 99.6422 175.042 98.7812 178.35H122.344C121.483 175.042 120.984 171.508 120.984 167.928C120.984 161.584 122.48 155.603 125.062 150.256H96.0625ZM59.8125 153.428C63.6581 153.428 67.3463 154.956 70.0655 157.675C72.7848 160.394 74.3125 164.082 74.3125 167.928C74.3125 171.774 72.7848 175.462 70.0655 178.181C67.3463 180.9 63.6581 182.428 59.8125 182.428C55.9669 182.428 52.2787 180.9 49.5595 178.181C46.8402 175.462 45.3125 171.774 45.3125 167.928C45.3125 164.082 46.8402 160.394 49.5595 157.675C52.2787 154.956 55.9669 153.428 59.8125 153.428ZM161.312 153.428C165.158 153.428 168.846 154.956 171.566 157.675C174.285 160.394 175.812 164.082 175.812 167.928C175.812 171.774 174.285 175.462 171.566 178.181C168.846 180.9 165.158 182.428 161.312 182.428C157.467 182.428 153.779 180.9 151.059 178.181C148.34 175.462 146.812 171.774 146.812 167.928C146.812 164.082 148.34 160.394 151.059 157.675C153.779 154.956 157.467 153.428 161.312 153.428ZM201.505 164.756C201.595 165.798 201.641 166.841 201.641 167.928C201.641 172.777 200.78 177.398 199.194 181.748L222.484 172.414V164.756H201.505Z" fill="#6F8E74"/>
</svg>
