<svg width="163" height="178" viewBox="0 0 163 178" fill="none" xmlns="http://www.w3.org/2000/svg">
<g filter="url(#filter0_d_386_713)">
<rect x="4" width="155" height="170" fill="#6F8E74"/>
<rect opacity="0.5" x="112" y="57" width="44" height="82" fill="#EEEEEE"/>
<path d="M18.4286 125.111C18.4286 129.06 19.9939 132.847 22.7801 135.639C25.5664 138.431 29.3454 140 33.2857 140H92.7143C96.6546 140 100.434 138.431 103.22 135.639C106.006 132.847 107.571 129.06 107.571 125.111V35.7778H18.4286V125.111ZM33.2857 50.6667H92.7143V125.111H33.2857V50.6667ZM89 13.4444L81.5714 6H44.4286L37 13.4444H11V28.3333H115V13.4444H89Z" fill="#111111"/>
<rect x="33" y="50" width="60" height="75" fill="#162607"/>
<path d="M35.32 163V146.2H47.272V149.752H39.4V153.928H46.24V157.36H39.424V163H35.32ZM48.8395 157.552V146.2H52.8475V157.6C52.8475 157.952 52.8955 158.264 52.9915 158.536C53.0875 158.808 53.2315 159.032 53.4235 159.208C53.6155 159.384 53.8395 159.528 54.0955 159.64C54.3515 159.752 54.6315 159.84 54.9355 159.904C55.2555 159.952 55.5835 159.976 55.9195 159.976C56.2875 159.976 56.6235 159.952 56.9275 159.904C57.2475 159.84 57.5275 159.752 57.7675 159.64C58.0235 159.528 58.2395 159.384 58.4155 159.208C58.6075 159.016 58.7515 158.784 58.8475 158.512C58.9435 158.24 58.9915 157.936 58.9915 157.6V146.2H62.9995V157.552C62.9995 158.384 62.8955 159.112 62.6875 159.736C62.4955 160.36 62.1995 160.896 61.7995 161.344C61.4155 161.792 60.9355 162.152 60.3595 162.424C59.7835 162.696 59.1195 162.896 58.3675 163.024C57.6315 163.168 56.8155 163.24 55.9195 163.24C55.0235 163.24 54.2075 163.168 53.4715 163.024C52.7355 162.896 52.0795 162.696 51.5035 162.424C50.9275 162.152 50.4395 161.792 50.0395 161.344C49.6555 160.896 49.3595 160.36 49.1515 159.736C48.9435 159.112 48.8395 158.384 48.8395 157.552ZM65.4606 163V146.2H69.5406V159.448H77.0766V163H65.4606ZM78.82 163V146.2H82.9V159.448H90.436V163H78.82Z" fill="white"/>
<path d="M35.32 163H34.32V164H35.32V163ZM35.32 146.2V145.2H34.32V146.2H35.32ZM47.272 146.2H48.272V145.2H47.272V146.2ZM47.272 149.752V150.752H48.272V149.752H47.272ZM39.4 149.752V148.752H38.4V149.752H39.4ZM39.4 153.928H38.4V154.928H39.4V153.928ZM46.24 153.928H47.24V152.928H46.24V153.928ZM46.24 157.36V158.36H47.24V157.36H46.24ZM39.424 157.36V156.36H38.424V157.36H39.424ZM39.424 163V164H40.424V163H39.424ZM36.32 163V146.2H34.32V163H36.32ZM35.32 147.2H47.272V145.2H35.32V147.2ZM46.272 146.2V149.752H48.272V146.2H46.272ZM47.272 148.752H39.4V150.752H47.272V148.752ZM38.4 149.752V153.928H40.4V149.752H38.4ZM39.4 154.928H46.24V152.928H39.4V154.928ZM45.24 153.928V157.36H47.24V153.928H45.24ZM46.24 156.36H39.424V158.36H46.24V156.36ZM38.424 157.36V163H40.424V157.36H38.424ZM39.424 162H35.32V164H39.424V162ZM48.8395 146.2V145.2H47.8395V146.2H48.8395ZM52.8475 146.2H53.8475V145.2H52.8475V146.2ZM52.9915 158.536L53.9345 158.203V158.203L52.9915 158.536ZM53.4235 159.208L52.7478 159.945L53.4235 159.208ZM54.9355 159.904L54.7295 160.883L54.7582 160.889L54.7872 160.893L54.9355 159.904ZM56.9275 159.904L57.0835 160.892L57.1036 160.889L57.1236 160.885L56.9275 159.904ZM57.7675 159.64L57.3667 158.724L57.3556 158.729L57.3446 158.734L57.7675 159.64ZM58.8475 158.512L59.7905 158.845V158.845L58.8475 158.512ZM58.9915 146.2V145.2H57.9915V146.2H58.9915ZM62.9995 146.2H63.9995V145.2H62.9995V146.2ZM62.6875 159.736L61.7388 159.42L61.7351 159.431L61.7317 159.442L62.6875 159.736ZM61.7995 161.344L61.0536 160.678L61.0468 160.686L61.0402 160.693L61.7995 161.344ZM60.3595 162.424L59.9325 161.52L60.3595 162.424ZM58.3675 163.024L58.1997 162.038L58.1876 162.04L58.1755 162.043L58.3675 163.024ZM53.4715 163.024L53.6635 162.043L53.6532 162.041L53.6428 162.039L53.4715 163.024ZM51.5035 162.424L51.9305 161.52L51.5035 162.424ZM50.0395 161.344L49.2802 161.995L49.2868 162.002L49.2936 162.01L50.0395 161.344ZM49.1515 159.736L50.1002 159.42V159.42L49.1515 159.736ZM49.8395 157.552V146.2H47.8395V157.552H49.8395ZM48.8395 147.2H52.8475V145.2H48.8395V147.2ZM51.8475 146.2V157.6H53.8475V146.2H51.8475ZM51.8475 157.6C51.8475 158.041 51.9075 158.469 52.0485 158.869L53.9345 158.203C53.8835 158.059 53.8475 157.863 53.8475 157.6H51.8475ZM52.0485 158.869C52.1931 159.279 52.4223 159.647 52.7478 159.945L54.0992 158.471C54.0407 158.417 53.9819 158.337 53.9345 158.203L52.0485 158.869ZM52.7478 159.945C53.0267 160.201 53.3452 160.403 53.6947 160.556L54.4963 158.724C54.3338 158.653 54.2043 158.567 54.0992 158.471L52.7478 159.945ZM53.6947 160.556C54.0198 160.698 54.3659 160.806 54.7295 160.883L55.1415 158.925C54.8971 158.874 54.6832 158.806 54.4963 158.724L53.6947 160.556ZM54.7872 160.893C55.1581 160.949 55.5357 160.976 55.9195 160.976V158.976C55.6313 158.976 55.3529 158.955 55.0838 158.915L54.7872 160.893ZM55.9195 160.976C56.33 160.976 56.719 160.949 57.0835 160.892L56.7715 158.916C56.528 158.955 56.245 158.976 55.9195 158.976V160.976ZM57.1236 160.885C57.5046 160.808 57.8636 160.699 58.1904 160.546L57.3446 158.734C57.1914 158.805 56.9904 158.872 56.7314 158.923L57.1236 160.885ZM58.1683 160.556C58.5246 160.4 58.8483 160.189 59.1226 159.915L57.7084 158.501C57.6307 158.579 57.5224 158.656 57.3667 158.724L58.1683 160.556ZM59.1226 159.915C59.4267 159.611 59.648 159.249 59.7905 158.845L57.9045 158.179C57.855 158.319 57.7883 158.421 57.7084 158.501L59.1226 159.915ZM59.7905 158.845C59.9299 158.45 59.9915 158.031 59.9915 157.6H57.9915C57.9915 157.841 57.9571 158.03 57.9045 158.179L59.7905 158.845ZM59.9915 157.6V146.2H57.9915V157.6H59.9915ZM58.9915 147.2H62.9995V145.2H58.9915V147.2ZM61.9995 146.2V157.552H63.9995V146.2H61.9995ZM61.9995 157.552C61.9995 158.304 61.9052 158.921 61.7388 159.42L63.6362 160.052C63.8858 159.303 63.9995 158.464 63.9995 157.552H61.9995ZM61.7317 159.442C61.5783 159.94 61.3495 160.346 61.0536 160.678L62.5454 162.01C63.0495 161.446 63.4127 160.78 63.6433 160.03L61.7317 159.442ZM61.0402 160.693C60.755 161.026 60.3914 161.303 59.9325 161.52L60.7865 163.328C61.4796 163.001 62.076 162.558 62.5588 161.995L61.0402 160.693ZM59.9325 161.52C59.4531 161.746 58.8791 161.923 58.1997 162.038L58.5353 164.01C59.3599 163.869 60.1139 163.646 60.7865 163.328L59.9325 161.52ZM58.1755 162.043C57.5135 162.172 56.7631 162.24 55.9195 162.24V164.24C56.8679 164.24 57.7495 164.164 58.5595 164.005L58.1755 162.043ZM55.9195 162.24C55.0759 162.24 54.3255 162.172 53.6635 162.043L53.2795 164.005C54.0895 164.164 54.9711 164.24 55.9195 164.24V162.24ZM53.6428 162.039C52.9805 161.924 52.4127 161.747 51.9305 161.52L51.0765 163.328C51.7463 163.645 52.4905 163.868 53.3002 164.009L53.6428 162.039ZM51.9305 161.52C51.4683 161.301 51.0908 161.02 50.7854 160.678L49.2936 162.01C49.7882 162.564 50.3868 163.003 51.0765 163.328L51.9305 161.52ZM50.7988 160.693C50.5081 160.354 50.272 159.935 50.1002 159.42L48.2028 160.052C48.447 160.785 48.8029 161.438 49.2802 161.995L50.7988 160.693ZM50.1002 159.42C49.9338 158.921 49.8395 158.304 49.8395 157.552H47.8395C47.8395 158.464 47.9532 159.303 48.2028 160.052L50.1002 159.42ZM65.4606 163H64.4606V164H65.4606V163ZM65.4606 146.2V145.2H64.4606V146.2H65.4606ZM69.5406 146.2H70.5406V145.2H69.5406V146.2ZM69.5406 159.448H68.5406V160.448H69.5406V159.448ZM77.0766 159.448H78.0766V158.448H77.0766V159.448ZM77.0766 163V164H78.0766V163H77.0766ZM66.4606 163V146.2H64.4606V163H66.4606ZM65.4606 147.2H69.5406V145.2H65.4606V147.2ZM68.5406 146.2V159.448H70.5406V146.2H68.5406ZM69.5406 160.448H77.0766V158.448H69.5406V160.448ZM76.0766 159.448V163H78.0766V159.448H76.0766ZM77.0766 162H65.4606V164H77.0766V162ZM78.82 163H77.82V164H78.82V163ZM78.82 146.2V145.2H77.82V146.2H78.82ZM82.9 146.2H83.9V145.2H82.9V146.2ZM82.9 159.448H81.9V160.448H82.9V159.448ZM90.436 159.448H91.436V158.448H90.436V159.448ZM90.436 163V164H91.436V163H90.436ZM79.82 163V146.2H77.82V163H79.82ZM78.82 147.2H82.9V145.2H78.82V147.2ZM81.9 146.2V159.448H83.9V146.2H81.9ZM82.9 160.448H90.436V158.448H82.9V160.448ZM89.436 159.448V163H91.436V159.448H89.436ZM90.436 162H78.82V164H90.436V162Z" fill="black"/>
<rect x="4.5" y="0.5" width="154" height="169" stroke="black"/>
</g>
<defs>
<filter id="filter0_d_386_713" x="0" y="0" width="163" height="178" filterUnits="userSpaceOnUse" color-interpolation-filters="sRGB">
<feFlood flood-opacity="0" result="BackgroundImageFix"/>
<feColorMatrix in="SourceAlpha" type="matrix" values="0 0 0 0 0 0 0 0 0 0 0 0 0 0 0 0 0 0 127 0" result="hardAlpha"/>
<feOffset dy="4"/>
<feGaussianBlur stdDeviation="2"/>
<feComposite in2="hardAlpha" operator="out"/>
<feColorMatrix type="matrix" values="0 0 0 0 0 0 0 0 0 0 0 0 0 0 0 0 0 0 0.25 0"/>
<feBlend mode="normal" in2="BackgroundImageFix" result="effect1_dropShadow_386_713"/>
<feBlend mode="normal" in="SourceGraphic" in2="effect1_dropShadow_386_713" result="shape"/>
</filter>
</defs>
</svg>
