<svg width="197" height="247" viewBox="0 0 197 247" fill="none" xmlns="http://www.w3.org/2000/svg">
<path d="M191.606 32.1006H150.246V25.2183C150.246 15.5356 147.202 8.5165 141.049 4.23305C136.702 1.42542 131.312 0 125.043 0H78.6892C78.6532 0 78.6244 0.0215974 78.5884 0.0215974C78.5524 0.0215974 78.5236 0 78.4877 0H71.9458C55.6884 0 46.7356 8.95564 46.7356 25.2183V32.1006H5.39756C3.96604 32.1006 2.59314 32.6695 1.58091 33.6821C0.568669 34.6946 0 36.068 0 37.4999C0 38.9319 0.568669 40.3053 1.58091 41.3178C2.59314 42.3304 3.96604 42.8992 5.39756 42.8992H10.0538L24.0587 228.527C24.0587 240.269 30.8596 247 42.7271 247H153.996C165.59 247 172.398 240.305 172.65 228.93L186.662 42.8992H191.599C192.308 42.8997 193.01 42.7605 193.665 42.4896C194.32 42.2187 194.915 41.8214 195.417 41.3204C195.918 40.8193 196.316 40.2244 196.588 39.5695C196.859 38.9146 197 38.2126 197 37.5035C197 36.7945 196.861 36.0923 196.591 35.437C196.32 34.7818 195.922 34.1863 195.422 33.6846C194.921 33.1829 194.326 32.7848 193.671 32.513C193.017 32.2412 192.315 32.1011 191.606 32.1006ZM175.039 53.5251H21.6838L20.8849 42.8992H175.838L175.039 53.5251ZM57.5379 25.2183C57.5379 14.9741 61.7121 10.7986 71.953 10.7986H125.051C129.21 10.7986 132.629 11.6409 135.047 13.1959C138.019 15.262 139.458 19.1927 139.458 25.2183V32.1006H57.5379V25.2183ZM161.876 228.405C161.74 234.236 159.753 236.201 153.996 236.201H42.7271C36.8401 236.201 34.8538 234.265 34.8394 228.117L22.497 64.3165H174.219L161.876 228.405Z" fill="#162607"/>
<path d="M79.7679 72.5363C79.0502 72.5612 78.3445 72.725 77.6911 73.0183C77.0378 73.3116 76.4498 73.7285 75.9605 74.2453C75.4713 74.7622 75.0905 75.3687 74.84 76.0303C74.5894 76.6919 74.474 77.3955 74.5004 78.101L79.6366 216.889C79.6876 218.279 80.2845 219.596 81.3021 220.562C82.3196 221.529 83.6787 222.071 85.0939 222.073L85.2982 222.066C86.016 222.041 86.7217 221.877 87.375 221.584C88.0283 221.291 88.6164 220.874 89.1056 220.357C89.5948 219.84 89.9756 219.234 90.2262 218.572C90.4767 217.911 90.5921 217.207 90.5658 216.502L85.4368 77.7066C85.3274 74.7378 82.8614 72.2781 79.7679 72.5363ZM45.8496 72.5434C44.4024 72.6427 43.0545 73.3028 42.1023 74.3785C41.1501 75.4543 40.6715 76.8577 40.7717 78.2803L50.4679 217.068C50.5622 218.426 51.1773 219.698 52.1889 220.627C53.2006 221.556 54.5333 222.073 55.9179 222.073L56.3045 222.059C57.7518 221.96 59.0996 221.3 60.0519 220.224C61.0041 219.148 61.4827 217.745 61.3824 216.322L51.6863 77.5345C51.5741 76.1163 50.8994 74.7982 49.8075 73.8645C48.7156 72.9308 47.2941 72.4564 45.8496 72.5434ZM117.232 72.5363C114.175 72.2494 111.673 74.7449 111.57 77.7137L106.427 216.502C106.4 217.207 106.514 217.911 106.765 218.573C107.015 219.235 107.395 219.842 107.885 220.359C108.374 220.876 108.963 221.293 109.617 221.586C110.27 221.879 110.976 222.042 111.695 222.066L111.899 222.073C113.314 222.071 114.673 221.529 115.691 220.562C116.708 219.596 117.305 218.279 117.356 216.889L122.5 78.101C122.527 77.3953 122.412 76.6912 122.162 76.0293C121.912 75.3673 121.531 74.7603 121.042 74.2433C120.552 73.7263 119.964 73.3094 119.31 73.0164C118.656 72.7235 117.95 72.5603 117.232 72.5363ZM151.15 72.5434C149.706 72.4582 148.286 72.9334 147.194 73.8667C146.103 74.8 145.428 76.117 145.314 77.5345L135.618 216.322C135.517 217.745 135.996 219.148 136.948 220.224C137.9 221.3 139.248 221.96 140.695 222.059L141.082 222.073C142.466 222.071 143.798 221.554 144.809 220.625C145.821 219.696 146.436 218.425 146.532 217.068L156.228 78.2803C156.329 76.8577 155.85 75.4543 154.898 74.3785C153.945 73.3028 152.598 72.6427 151.15 72.5434Z" fill="#162607"/>
</svg>
