<svg width="309" height="92" viewBox="0 0 309 92" fill="none" xmlns="http://www.w3.org/2000/svg">
<g clip-path="url(#clip0_311_30)">
<rect width="309" height="92" fill="#D9D9D9"/>
<rect x="-150" y="-18" width="241" height="119" fill="#6F8E74"/>
<path d="M123.75 55V37.5H125.925V53.1H134.35V55H123.75ZM135.951 49.725V37.5H138.076V49.75C138.076 50.35 138.159 50.8667 138.326 51.3C138.492 51.7333 138.726 52.0917 139.026 52.375C139.326 52.6417 139.676 52.8583 140.076 53.025C140.476 53.1917 140.892 53.3083 141.326 53.375C141.776 53.425 142.226 53.45 142.676 53.45C143.142 53.45 143.592 53.4167 144.026 53.35C144.476 53.2833 144.892 53.175 145.276 53.025C145.659 52.8583 146.001 52.6333 146.301 52.35C146.601 52.0667 146.834 51.7167 147.001 51.3C147.167 50.8667 147.251 50.35 147.251 49.75V37.5H149.376V49.725C149.376 50.5917 149.259 51.3417 149.026 51.975C148.809 52.5917 148.492 53.1167 148.076 53.55C147.659 53.9667 147.167 54.3 146.601 54.55C146.051 54.8 145.442 54.975 144.776 55.075C144.109 55.1917 143.401 55.25 142.651 55.25C141.934 55.25 141.234 55.1917 140.551 55.075C139.884 54.975 139.267 54.8 138.701 54.55C138.151 54.3 137.667 53.9667 137.251 53.55C136.834 53.1167 136.509 52.5917 136.276 51.975C136.059 51.3417 135.951 50.5917 135.951 49.725ZM150.523 55L156.523 37.325H158.948L164.973 55H162.598L161.098 50.475H154.273L152.773 55H150.523ZM154.723 48.675H160.673L157.698 39.425L154.723 48.675ZM180.612 55.25C180.196 55.25 179.771 55.1667 179.337 55C178.921 54.85 178.487 54.6 178.037 54.25C177.587 53.9 177.121 53.45 176.637 52.9C176.171 52.35 175.671 51.6833 175.137 50.9C174.604 50.1167 174.046 49.2083 173.462 48.175C173.279 48.1917 173.062 48.2 172.812 48.2C172.562 48.2 172.354 48.2 172.187 48.2C171.721 48.2 171.229 48.2 170.712 48.2C170.196 48.2 169.687 48.1917 169.187 48.175V55H167.012V37.45C167.746 37.4 168.421 37.3667 169.037 37.35C169.654 37.3167 170.237 37.2917 170.787 37.275C171.337 37.2583 171.896 37.25 172.462 37.25C173.746 37.25 174.837 37.3417 175.737 37.525C176.637 37.6917 177.371 37.975 177.937 38.375C178.504 38.775 178.921 39.3083 179.187 39.975C179.454 40.625 179.587 41.425 179.587 42.375C179.587 43.4083 179.429 44.2833 179.112 45C178.812 45.7 178.362 46.2667 177.762 46.7C177.162 47.1167 176.437 47.4333 175.587 47.65C176.171 48.65 176.721 49.5 177.237 50.2C177.754 50.9 178.229 51.4667 178.662 51.9C179.096 52.3167 179.487 52.6333 179.837 52.85C180.204 53.05 180.537 53.15 180.837 53.15C180.871 53.15 180.929 53.15 181.012 53.15C181.096 53.1333 181.162 53.1167 181.212 53.1L181.262 55.175C181.179 55.1917 181.087 55.2083 180.987 55.225C180.887 55.2417 180.762 55.25 180.612 55.25ZM172.562 46.4C173.396 46.4 174.112 46.3333 174.712 46.2C175.312 46.0667 175.804 45.8583 176.187 45.575C176.587 45.275 176.879 44.8917 177.062 44.425C177.246 43.9417 177.337 43.35 177.337 42.65C177.337 41.75 177.187 41.0333 176.887 40.5C176.604 39.9667 176.112 39.5833 175.412 39.35C174.712 39.1167 173.746 39 172.512 39C172.179 39 171.879 39 171.612 39C171.362 39 171.121 39.0083 170.887 39.025C170.654 39.0417 170.396 39.0583 170.112 39.075C169.846 39.075 169.537 39.0917 169.187 39.125V46.325C169.504 46.3417 169.804 46.3583 170.087 46.375C170.371 46.375 170.646 46.3833 170.912 46.4C171.196 46.4 171.471 46.4 171.737 46.4C172.004 46.4 172.279 46.4 172.562 46.4Z" fill="#6F8E74"/>
<rect x="215" y="-16" width="241" height="119" fill="#6F8E74"/>
</g>
<rect x="1" y="1" width="307" height="90" stroke="black" stroke-width="2"/>
<defs>
<clipPath id="clip0_311_30">
<rect width="309" height="92" fill="white"/>
</clipPath>
</defs>
</svg>
