<svg width="66" height="61" viewBox="0 0 66 61" fill="none" xmlns="http://www.w3.org/2000/svg">
<path d="M29.3333 21.2222H32.4444L34 25.1111L35.5556 21.2222H38.6667L35.5556 29L38.6667 36.7778H35.5556L34 32.8889L32.4444 36.7778H29.3333L32.4444 29L29.3333 21.2222ZM23.1111 15H44.8889C45.714 15 46.5053 15.3278 47.0888 15.9112C47.6722 16.4947 48 17.286 48 18.1111V39.8889C48 40.714 47.6722 41.5053 47.0888 42.0888C46.5053 42.6722 45.714 43 44.8889 43H23.1111C22.286 43 21.4947 42.6722 20.9112 42.0888C20.3278 41.5053 20 40.714 20 39.8889V18.1111C20 17.286 20.3278 16.4947 20.9112 15.9112C21.4947 15.3278 22.286 15 23.1111 15ZM23.1111 18.1111V39.8889H44.8889V18.1111H23.1111Z" fill="#111111"/>
</svg>
